<svg xmlns="http://www.w3.org/2000/svg" viewBox="0 0 128 128"><defs><style>.a{fill:none;stroke:#04a9ff;stroke-miterlimit:10;stroke-width:6px;}.b{fill:#04a9ff;}</style></defs><title>icon_light_strokes</title><path class="a" d="M11.33,110.75l.86-93.89A9.76,9.76,0,0,1,14.78,10a12.64,12.64,0,0,1,7.76-3.82h94.83l-.86,93.91H20.65c-5.27,1.39-9,5.71-9.32,10.67-.32,5.4,3.54,10.45,9.32,12H119.7"/><path class="b" d="M56.94,79.94,44.7,39.61h-.37q.86,10.3.86,16V79.94H30.85V24H52.4L64.89,63.7h.33L77.47,24H99.06v56H84.19V55.39c0-1.27,0-2.69.06-4.25s.22-5.37.55-11.45h-.37L72.35,79.94Z"/></svg>